<svg xmlns="http://www.w3.org/2000/svg" width="208" height="208" fill="none"><foreignObject width="256" height="256" x="-24" y="-24"><div xmlns="http://www.w3.org/1999/xhtml" style="backdrop-filter:blur(12px);clip-path:url(#a);height:100%;width:100%"/></foreignObject><g clip-path="url(#b)" data-figma-bg-blur-radius="24"><rect width="208" height="208" fill="#fff" fill-opacity=".11" rx="16"/><g clip-path="url(#c)"><g stroke="#fff" stroke-opacity=".25" stroke-width=".415" clip-path="url(#d)"><path d="M281.74-1245.6-1246.03 281.325M283.983-1243.36-1243.79 283.562M286.217-1241.13-1241.56 285.8M288.459-1238.89-1239.32 288.038M290.694-1236.65-1237.08 290.276M292.936-1234.41-1234.84 292.513M295.17-1232.18-1232.6 294.751M297.404-1229.94-1230.37 296.989M299.647-1227.7-1228.13 299.227M301.881-1225.46-1225.89 301.464M304.123-1223.22-1223.65 303.702M306.358-1220.99-1221.42 305.94M308.6-1218.75-1219.18 308.178M310.834-1216.51-1216.94 310.415M313.069-1214.27-1214.71 312.653M315.311-1212.04-1212.46 314.891M317.545-1209.8-1210.23 317.129M319.787-1207.56-1207.99 319.366M322.022-1205.32-1205.75 321.604M324.264-1203.08-1203.51 323.842M326.498-1200.85-1201.28 326.08M328.733-1198.61-1199.04 328.317M330.975-1196.37-1196.8 330.555M333.209-1194.13-1194.57 332.793M335.451-1191.9-1192.32 335.031M337.686-1189.66-1190.09 337.268M339.928-1187.42-1187.85 339.506M342.162-1185.18-1185.61 341.744M344.404-1182.94-1183.37 343.982M346.639-1180.71-1181.14 346.219M348.873-1178.47-1178.9 348.457M351.115-1176.23-1176.66 350.695M353.35-1173.99-1174.43 352.933M355.592-1171.76-1172.18 355.17M357.826-1169.52-1169.95 357.408M360.069-1167.28-1167.71 359.646M362.303-1165.04-1165.47 361.884M364.537-1162.81-1163.24 364.121M366.779-1160.57-1161 366.359M369.014-1158.33-1158.76 368.597M371.256-1156.09-1156.52 370.835M373.49-1153.85-1154.28 373.072M375.733-1151.62-1152.04 375.31M377.967-1149.38-1149.81 377.548M380.201-1147.14-1147.57 379.786M382.444-1144.9-1145.33 382.023M384.678-1142.67-1143.1 384.261M386.92-1140.43-1140.85 386.499M389.154-1138.19-1138.62 388.737M391.397-1135.95-1136.38 390.974M393.631-1133.71-1134.14 393.212M395.865-1131.48-1131.91 395.45M398.108-1129.24-1129.67 397.688M400.342-1127-1127.43 399.926M402.584-1124.76-1125.19 402.163M404.819-1122.53-1122.96 404.401M407.061-1120.29-1120.71 406.639M409.295-1118.05-1118.48 408.876M411.529-1115.81-1116.25 411.114M413.772-1113.57-1114 413.352M416.006-1111.34-1111.77 415.59M418.248-1109.1-1109.53 417.827M420.483-1106.86-1107.29 420.065M422.725-1104.62-1105.05 422.303M424.959-1102.39-1102.82 424.541M427.194-1100.15-1100.58 426.778M429.436-1097.91-1098.34 429.016M431.67-1095.67-1096.1 431.254M433.912-1093.43-1093.86 433.492M436.147-1091.2-1091.63 435.729M438.389-1088.96-1089.39 437.967M440.623-1086.72-1087.15 440.205M442.865-1084.48-1084.91 442.443M445.1-1082.25-1082.68 444.68M447.334-1080.01-1080.44 446.918M449.576-1077.77-1078.2 449.156M451.811-1075.53-1075.96 451.394M454.053-1073.3-1073.72 453.631M456.287-1071.06-1071.49 455.869M458.529-1068.82-1069.25 458.107M460.764-1066.58-1067.01 460.345M462.998-1064.34-1064.78 462.582M465.24-1062.11-1062.53 464.82M467.475-1059.87-1060.3 467.058M469.717-1057.63-1058.06 469.296M471.951-1055.39-1055.82 471.533M474.194-1053.16-1053.58 473.771M476.428-1050.92-1051.35 476.009M478.662-1048.68-1049.11 478.247M480.904-1046.44-1046.87 480.484M483.139-1044.2-1044.64 482.722M485.381-1041.97-1042.39 484.96M487.615-1039.73-1040.16 487.197M489.858-1037.49-1037.92 489.435M492.092-1035.25-1035.68 491.673M494.326-1033.02-1033.45 493.911M496.569-1030.78-1031.21 496.148M498.803-1028.54-1028.97 498.386M501.045-1026.3-1026.73 500.624M503.279-1024.06-1024.5 502.862M505.522-1021.83-1022.25 505.1M507.756-1019.59-1020.02 507.337M509.99-1017.35-1017.78 509.575M512.233-1015.11-1015.54 511.813M514.467-1012.88-1013.31 514.051M516.709-1010.64-1011.07 516.288M518.944-1008.4-1008.83 518.526M521.186-1006.16-1006.59 520.764M523.42-1003.92-1004.35 523.001M525.654-1001.69-1002.12 525.239M527.897-999.45-999.878 527.477M530.131-997.212-997.644 529.715M532.373-994.974-995.402 531.952M534.608-992.736-993.167 534.19M536.85-990.498-990.925 536.428M539.084-988.261-988.691 538.666M541.319-986.023-986.456 540.903M543.561-983.785-984.214 543.141M545.795-981.547-981.98 545.379M548.037-979.31-979.738 547.616M550.272-977.072-977.503 549.854M552.514-974.834-975.261 552.092M554.748-972.597-973.027 554.33M556.983-970.359-970.792 556.568M559.225-968.121-968.55 558.805M561.459-965.883-966.316 561.043M563.701-963.646-964.074 563.281M565.936-961.408-961.839 565.519M568.178-959.17-959.597 567.756M570.412-956.932-957.363 569.994M572.654-954.695-955.12 572.232M574.889-952.457-952.886 574.469M577.123-950.219-950.652 576.707M579.365-947.982-948.409 578.945M581.6-945.744-946.175 581.183M583.842-943.506-943.933 583.42M586.076-941.268-941.699 585.658M588.319-939.03-939.456 587.896M590.553-936.793-937.222 590.134M592.787-934.555-934.988 592.371M595.029-932.317-932.745 594.609M597.264-930.079-930.511 596.847M599.506-927.842-928.269 599.084M601.74-925.604-926.034 601.322M603.983-923.366-923.792 603.56M606.217-921.129-921.558 605.798M608.451-918.891-919.324 608.036M610.694-916.653-917.081 610.273M612.928-914.415-914.847 612.511M615.17-912.178-912.605 614.749M617.404-909.94-910.37 616.987M619.647-907.702-908.128 619.224M621.881-905.464-905.894 621.462M624.115-903.227-903.659 623.7M626.358-900.989-901.417 625.938M628.592-898.751-899.183 628.175M630.834-896.514-896.941 630.413M633.069-894.276-894.706 632.651M635.311-892.038-892.464 634.888M637.545-889.8-890.23 637.126M639.779-887.562-887.995 639.364M642.022-885.325-885.753 641.602M644.256-883.087-883.519 643.839M646.498-880.849-881.277 646.077M648.733-878.611-879.042 648.315M650.975-876.374-876.8 650.553M653.209-874.136-874.566 652.791M655.444-871.898-872.331 655.028M657.686-869.661-870.089 657.266M659.92-867.423-867.855 659.504M662.162-865.185-865.613 661.741M664.397-862.947-863.378 663.979M666.639-860.709-861.136 666.217M668.873-858.472-858.902 668.455M671.108-856.234-856.667 670.692M673.35-853.996-854.425 672.93M675.584-851.758-852.191 675.168M677.826-849.521-849.949 677.406M680.061-847.283-847.714 679.644M682.303-845.045-845.472 681.881M684.537-842.807-843.238 684.119M686.779-840.569-840.995 686.357M689.014-838.332-838.761 688.594M691.248-836.094-836.527 690.832M693.49-833.856-834.284 693.07M695.725-831.619-832.05 695.308M697.967-829.381-829.808 697.546M700.201-827.143-827.574 699.783M702.444-824.905-825.331 702.021M704.678-822.667-823.097 704.259M706.912-820.43-820.863 706.497M709.154-818.192-818.62 708.734M711.389-815.954-816.386 710.972M713.631-813.716-814.144 713.21M715.865-811.479-811.909 715.448M718.108-809.241-809.667 717.686M720.342-807.003-807.433 719.923M722.576-804.765-805.199 722.161M724.819-802.528-802.956 724.399M727.053-800.29-800.722 726.636M729.295-798.052-798.48 728.874M731.529-795.814-796.245 731.112M733.772-793.577-794.003 733.35M736.006-791.339-791.769 735.588M738.24-789.101-789.534 737.825M740.483-786.863-787.292 740.063M742.717-784.626-785.058 742.301M744.959-782.388-782.816 744.539M747.194-780.15-780.581 746.776M749.436-777.912-778.339 749.014M751.67-775.674-776.105 751.252M753.912-773.437-773.863 753.49M756.147-771.199-771.628 755.728M758.381-768.961-769.394 757.965M760.623-766.723-767.152 760.203M762.858-764.486-764.917 762.441M765.1-762.248-762.675 764.678M767.334-760.01-760.441 766.916M769.576-757.772-758.199 769.154M771.811-755.535-755.964 771.392M774.045-753.297-753.73 773.63M776.287-751.059-751.488 775.867M778.522-748.821-749.253 778.105M780.764-746.584-747.011 780.343M782.998-744.346-744.777 782.581M785.24-742.108-742.534 784.818M787.475-739.87-740.3 787.056M789.709-737.632-738.066 789.294M791.951-735.395-735.824 791.532M794.186-733.157-733.589 793.769M796.428-730.919-731.347 796.007M798.662-728.681-729.113 798.245M800.904-726.444-726.87 800.483M803.139-724.206-724.636 802.72M805.373-721.968-722.402 804.958M807.615-719.73-720.159 807.196M809.85-717.493-717.925 809.434M812.092-715.255-715.683 811.671M814.326-713.017-713.449 813.909M816.569-710.779-711.206 816.147M818.803-708.542-708.972 818.385M821.045-706.304-706.73 820.623M823.279-704.066-704.495 822.86M825.514-701.828-702.261 825.098M827.756-699.591-700.019 827.336M829.99-697.353-697.784 829.573M832.233-695.115-695.542 831.811M834.467-692.877-693.308 834.049M836.709-690.64-691.066 836.287M838.944-688.402-688.831 838.525M841.178-686.164-686.597 840.762M843.42-683.926-684.355 843M845.654-681.689-682.12 845.238M847.897-679.451-679.878 847.476M850.131-677.213-677.644 849.713M852.373-674.975-675.402 851.951M854.608-672.737-673.167 854.189M856.842-670.5-670.933 856.427M859.084-668.262-668.691 858.665M861.319-666.024-666.456 860.902M863.561-663.786-664.214 863.14M865.795-661.549-661.98 865.378M868.037-659.311-659.738 867.615M870.272-657.073-657.503 869.853M872.514-654.835-655.261 872.091M874.748-652.598-653.027 874.329M876.983-650.36-650.792 876.567M879.225-648.122-648.55 878.804M881.459-645.884-646.316 881.042M883.701-643.647-644.074 883.28M885.936-641.409-641.839 885.518M888.178-639.171-639.597 887.755M890.412-636.933-637.363 889.993M892.647-634.695-635.128 892.231M894.889-632.458-632.886 894.469M897.123-630.22-630.652 896.707M899.365-627.982-628.409 898.944M901.6-625.744-626.175 901.182M903.842-623.507-623.933 903.42M906.076-621.269-621.699 905.657M908.311-619.031-619.464 907.895M910.553-616.793-617.222 910.133M912.787-614.556-614.988 912.371M915.029-612.318-612.745 914.608M917.264-610.08-610.511 916.846M919.506-607.842-608.269 919.084M921.74-605.605-606.034 921.322M923.975-603.367-603.8 923.56M926.217-601.129-601.558 925.797M928.451-598.891-599.324 928.035M930.694-596.653-597.081 930.273M932.928-594.416-594.847 932.51M935.17-592.178-592.605 934.748M937.404-589.94-590.37 936.986M939.647-587.702-588.128 939.224M941.881-585.465-585.894 941.462M944.115-583.227-583.659 943.699M946.358-580.989-581.417 945.937M948.592-578.751-579.183 948.175M950.834-576.514-576.941 950.413M953.069-574.276-574.706 952.65M955.311-572.038-572.464 954.888M957.545-569.8-570.23 957.126M959.779-567.563-567.995 959.364M962.022-565.325-565.753 961.602M964.256-563.087-563.519 963.839M966.498-560.849-561.277 966.077M968.733-558.612-559.042 968.315M970.975-556.374-556.8 970.552M973.209-554.136-554.566 972.79M975.444-551.898-552.331 975.028M977.686-549.661-550.089 977.266M979.92-547.423-547.855 979.504M982.162-545.185-545.613 981.741M984.397-542.947-543.378 983.979M986.639-540.71-541.136 986.217M988.873-538.472-538.902 988.455M991.108-536.234-536.667 990.692M993.35-533.996-534.425 992.93M995.584-531.758-532.191 995.168M997.826-529.521-529.949 997.406M1000.06-527.283-527.714 999.644M1002.3-525.045-525.472 1001.88M1004.54-522.807-523.238 1004.12M1006.78-520.57-520.995 1006.36M1009.01-518.332-518.761 1008.59M1011.25-516.094-516.527 1010.83M1013.49-513.856-514.284 1013.07M1015.72-511.619-512.05 1015.31M1017.97-509.381-509.808 1017.55M1020.2-507.143-507.574 1019.78M1022.44-504.905-505.331 1022.02M1024.68-502.668-503.097 1024.26M1026.91-500.43-500.863 1026.5M1029.15-498.192-498.62 1028.73M1031.39-495.954-496.386 1030.97M1033.63-493.717-494.144 1033.21M1035.87-491.479-491.91 1035.45M1038.11-489.241-489.667 1037.69M1040.34-487.003-487.433 1039.92M1042.58-484.765-485.199 1042.16M1044.82-482.528-482.956 1044.4M1047.05-480.29-480.722 1046.64M1049.3-478.052-478.48 1048.87M1051.53-475.815-476.245 1051.11M1053.77-473.577-474.003 1053.35M1056.01-471.339-471.769 1055.59M1058.24-469.101-469.535 1057.83M1060.48-466.863-467.292 1060.06M1062.72-464.626-465.058 1062.3M1064.96-462.388-462.816 1064.54M1067.19-460.15-460.581 1066.78M1069.44-457.912-458.339 1069.01M1071.67-455.675-456.105 1071.25M1073.91-453.437-453.863 1073.49M1076.15-451.199-451.628 1075.73M1078.38-448.961-449.394 1077.97M1080.62-446.723-447.152 1080.2M1082.86-444.486-444.917 1082.44M1085.1-442.248-442.675 1084.68M1087.33-440.01-440.441 1086.92M1089.58-437.773-438.199 1089.15M1091.81-435.535-435.964 1091.39M1094.05-433.297-433.73 1093.63M1096.29-431.059-431.488 1095.87M1098.52-428.821-429.253 1098.1M1100.76-426.584-427.011 1100.34M1103-424.346-424.777 1102.58M1105.24-422.108-422.535 1104.82M1107.47-419.87-420.3 1107.06M1109.71-417.633-418.066 1109.29M1111.95-415.395-415.824 1111.53M1114.19-413.157-413.589 1113.77M1116.43-410.919-411.347 1116.01M1118.66-408.681-409.113 1118.24M1120.9-406.444-406.87 1120.48M1123.14-404.206-404.636 1122.72M1125.37-401.968-402.402 1124.96M1127.62-399.731-400.16 1127.2M1129.85-397.493-397.925 1129.43M1132.09-395.255-395.683 1131.67M1134.33-393.017-393.449 1133.91M1136.57-390.779-391.206 1136.15M1138.8-388.542-388.972 1138.38M1141.05-386.304-386.73 1140.62M1143.28-384.066-384.495 1142.86M1145.51-381.828-382.261 1145.1M1147.76-379.591-380.019 1147.34M1149.99-377.353-377.785 1149.57M1152.23-375.115-375.542 1151.81M1154.47-372.877-373.308 1154.05M1156.71-370.64-371.066 1156.29M1158.94-368.402-368.831 1158.52M1161.18-366.164-366.597 1160.76M1163.42-363.926-364.355 1163M1165.65-361.689-362.12 1165.24M1167.9-359.451-359.878 1167.48M1170.13-357.213-357.644 1169.71M1172.37-354.975-355.402 1171.95M1174.61-352.738-353.167 1174.19M1176.84-350.5-350.933 1176.43M1179.08-348.262-348.691 1178.66M1181.32-346.024-346.456 1180.9M1183.56-343.786-344.214 1183.14M1185.8-341.549-341.98 1185.38M1188.04-339.311-339.738 1187.62M1190.27-337.073-337.503 1189.85M1192.51-334.836-335.269 1192.09M1194.75-332.598-333.027 1194.33M1196.98-330.36-330.792 1196.57M1199.22-328.122-328.55 1198.8M1201.46-325.884-326.316 1201.04M1203.7-323.647-324.074 1203.28M1205.94-321.409-321.839 1205.52M1208.18-319.171-319.597 1207.76M1210.41-316.933-317.363 1209.99M1212.65-314.696-315.128 1212.23M1214.89-312.458-312.886 1214.47M1217.12-310.22-310.652 1216.71M1219.37-307.982-308.41 1218.94M1221.6-305.744-306.175 1221.18M1223.84-303.507-303.933 1223.42M1226.08-301.269-301.699 1225.66M1228.31-299.031-299.464 1227.9M1230.55-296.794-297.222 1230.13M1232.79-294.556-294.988 1232.37M1235.03-292.318-292.745 1234.61M1237.26-290.08-290.511 1236.85M1239.51-287.842-288.269 1239.08M1241.74-285.605-286.035 1241.32M1243.97-283.367-283.8 1243.56M1246.22-281.129-281.558 1245.8M1248.45-278.891-279.324 1248.03M1250.69-276.654-277.081 1250.27M1252.93-274.416-274.847 1252.51M1255.17-272.178-272.605 1254.75M1257.4-269.94-270.37 1256.99M1259.64-267.702-268.136 1259.22M1261.88-265.465-265.894 1261.46M1264.12-263.227-263.66 1263.7M1266.36-260.989-261.417 1265.94M1268.59-258.752-259.183 1268.17M1270.83-256.514-256.941 1270.41M1273.07-254.276-254.706 1272.65M1275.31-252.038-252.464 1274.89M1277.55-249.801-250.23 1277.13M1279.78-247.563-247.995 1279.36M1282.02-245.325-245.753 1281.6M1284.26-243.087-243.519 1283.84M1286.5-240.849-241.277 1286.08M1288.73-238.612-239.042 1288.31M1290.97-236.374-236.8 1290.55M1293.21-234.136-234.566 1292.79M1295.44-231.899-232.331 1295.03M1297.69-229.661-230.089 1297.27M1299.92-227.423-227.855 1299.5M1302.16-225.185-225.613 1301.74M1304.4-222.947-223.378 1303.98M1306.64-220.71-221.136 1306.22M1308.87-218.472-218.902 1308.45M1311.11-216.234-216.667 1310.69M1313.35-213.996-214.425 1312.93M1315.58-211.759-212.191 1315.17M1317.83-209.521-209.949 1317.41M1320.06-207.283-207.714 1319.64M1322.3-205.045-205.472 1321.88M1324.54-202.807-203.238 1324.12M1326.77-200.57-201.003 1326.36M1329.01-198.332-198.761 1328.59M1331.25-196.094-196.527 1330.83M1333.49-193.857-194.285 1333.07M1335.72-191.619-192.05 1335.31M1337.97-189.381-189.808 1337.55M1340.2-187.143-187.574 1339.78M1342.44-184.905-185.331 1342.02M1344.68-182.668-183.097 1344.26M1346.91-180.43-180.863 1346.5M1349.15-178.192-178.62 1348.73M1351.39-175.954-176.386 1350.97M1353.63-173.717-174.144 1353.21M1355.87-171.479-171.91 1355.45M1358.11-169.241-169.667 1357.69M1360.34-167.003-167.433 1359.92M1362.58-164.765-165.199 1362.16M1364.82-162.528-162.956 1364.4M1367.05-160.29-160.722 1366.64M1369.3-158.052-158.48 1368.87M1371.53-155.815-156.245 1371.11M1373.77-153.577-154.003 1373.35M1376.01-151.339-151.769 1375.59M1378.24-149.101-149.535 1377.83M1380.48-146.863-147.292 1380.06M1382.72-144.626-145.058 1382.3M1384.96-142.388-142.816 1384.54M1387.19-140.15-140.581 1386.78M1389.44-137.912-138.339 1389.01M1391.67-135.675-136.105 1391.25M1393.9-133.437-133.87 1393.49M1396.15-131.199-131.628 1395.73M1398.38-128.961-129.394 1397.97M1400.62-126.724-127.152 1400.2M1402.86-124.486-124.917 1402.44M1405.1-122.248-122.675 1404.68M1407.33-120.01-120.441 1406.92M1409.58-117.773-118.199 1409.15M1411.81-115.535-115.964 1411.39M1414.05-113.297-113.73 1413.63M1416.29-111.059-111.488 1415.87M1418.52-108.822-109.253 1418.1M1420.76-106.584-107.011 1420.34M1423-104.346-104.777 1422.58M1425.24-102.108-102.535 1424.82M1427.47-99.871-100.3 1427.06M1429.71-97.633-98.066 1429.29M1431.95-95.395-95.824 1431.53M1434.19-93.157-93.589 1433.77M1436.43-90.919-91.347 1436.01M1438.66-88.682-89.113 1438.24M1440.9-86.444-86.87 1440.48M1443.14-84.206-84.636 1442.72M1445.37-81.968-82.402 1444.96M1447.62-79.731-80.159 1447.2M1449.85-77.493-77.925 1449.43M1452.09-75.255-75.683 1451.67M1454.33-73.017-73.449 1453.91"/></g></g><rect width="192" height="192" x="8" y="8" fill="#111" rx="8"/><rect width="4" height="4" x="20" y="20" fill="#fff" fill-opacity=".25" rx="1"/><rect width="4" height="4" x="184" y="20" fill="#fff" fill-opacity=".25" rx="1"/><rect width="4" height="4" x="20" y="184" fill="#fff" fill-opacity=".25" rx="1"/><rect width="4" height="4" x="184" y="184" fill="#fff" fill-opacity=".25" rx="1"/><path fill="#6F6F6F" d="m82.076 139.248-3.623-2.637c.191-.016.287-.03.383-.03 1.312-.002 2.625-.017 3.937.008.363.007.496-.128.596-.453.402-1.302.831-2.595 1.252-3.891.015-.046.043-.088.104-.211l.835 2.539c.179.548.369 1.093.526 1.647.078.275.209.368.498.364 1.312-.015 2.624-.006 3.937-.006h.494l-2.857 2.084c-.255.185-.501.384-.768.549-.22.135-.248.275-.167.516.443 1.316.868 2.639 1.297 3.96.02.06.027.124.055.256-.154-.102-.259-.165-.357-.236-1.062-.77-2.128-1.534-3.18-2.318-.239-.179-.4-.187-.643-.005-1.019.761-2.054 1.501-3.084 2.248-.135.098-.276.189-.494.338l1.02-3.145c.126-.387.267-.769.365-1.162.029-.117-.065-.264-.126-.415Zm-6.095-16.775c-1.051.765-2.076 1.519-3.113 2.256-.2.141-.228.262-.153.486.429 1.28.84 2.566 1.257 3.85.034.106.058.216.108.408-1.059-.767-2.048-1.476-3.03-2.196-.833-.612-.83-.618-1.65-.024l-3.09 2.244.714-2.217c.222-.686.432-1.376.672-2.056.088-.248.023-.375-.18-.519-1.067-.761-2.125-1.536-3.186-2.307-.11-.081-.216-.169-.4-.315 1.508 0 2.908-.014 4.308.009.367.006.525-.105.633-.458.4-1.316.835-2.621 1.26-3.93.01-.033.043-.06.099-.135.276.837.542 1.637.804 2.438.188.572.384 1.143.55 1.722.079.275.212.366.5.363 1.428-.015 2.857-.007 4.415-.007l-.518.388Zm63.191-3.93c.357 1.088.716 2.143 1.043 3.207.084.271.214.34.474.338 1.391-.01 2.782-.005 4.172-.005.049 0 .098.004.251.011-.51.374-.945.695-1.382 1.013-.731.532-1.458 1.071-2.2 1.588-.221.154-.271.289-.184.549.423 1.254.824 2.515 1.231 3.773.039.121.068.245.128.458-.7-.504-1.326-.954-1.95-1.406-.54-.393-1.089-.777-1.613-1.191-.244-.194-.407-.16-.643.017-1.103.823-2.221 1.626-3.334 2.436-.042.03-.091.049-.215.115.232-.729.443-1.393.656-2.056.236-.736.466-1.474.72-2.203.075-.216.029-.326-.149-.454-1.056-.755-2.104-1.522-3.153-2.286-.133-.096-.263-.197-.485-.364h1.754c.892 0 1.784-.009 2.676.006.267.004.395-.081.477-.342.398-1.262.815-2.517 1.226-3.775l.155-.454.345 1.025Zm-8.763 18.031c-.03.088-.066.205-.145.263a204.234 204.234 0 0 1-3.22 2.333c-.249.175-.295.328-.199.614.456 1.352.888 2.712 1.352 4.14-.136-.072-.223-.105-.297-.159-1.084-.784-2.174-1.562-3.245-2.364-.252-.19-.412-.204-.673-.007-1.08.812-2.181 1.597-3.274 2.39-.063.045-.134.078-.273.157.235-.733.448-1.402.664-2.071.233-.723.458-1.449.708-2.167.08-.23.028-.351-.163-.487-1.057-.755-2.105-1.522-3.155-2.285-.125-.091-.247-.187-.434-.329.185-.011.294-.023.404-.023 1.326-.001 2.652-.008 3.978.005.281.003.416-.08.503-.359.395-1.264.814-2.52 1.226-3.778.035-.109.079-.215.155-.416.123.363.221.639.312.917.362 1.109.728 2.217 1.078 3.33.071.228.183.31.419.308 1.418-.01 2.836-.008 4.279-.012ZM101.813 66.36c.292-.845.294-.848-.407-1.359-.9-.657-1.803-1.309-2.705-1.964-.133-.096-.265-.196-.482-.358.23-.012.354-.025.478-.025 1.246 0 2.493-.025 3.738.015.469.015.657-.142.785-.575.353-1.194.755-2.372 1.139-3.556.036-.112.085-.22.16-.41.203.604.387 1.137.561 1.674.276.847.553 1.694.812 2.546.075.248.205.316.452.314 1.443-.01 2.886-.005 4.455-.005-.179.147-.275.234-.38.31-1.06.771-2.114 1.55-3.186 2.305-.257.18-.28.344-.188.62.42 1.254.821 2.515 1.228 3.774.031.096.055.195.112.402-.706-.51-1.327-.959-1.946-1.409-.542-.392-1.091-.774-1.618-1.186-.243-.19-.41-.156-.643.017-1.073.798-2.16 1.577-3.243 2.362-.071.052-.146.1-.315.215.416-1.295.799-2.486 1.193-3.707ZM61.03 109.59c.448-1.37.89-2.742 1.349-4.109.094-.282.04-.438-.206-.613a69.073 69.073 0 0 1-3.47-2.601h.351c1.34 0 2.678-.01 4.017.005.277.003.38-.09.46-.346.394-1.264.813-2.52 1.224-3.778.036-.108.078-.215.156-.428.231.7.433 1.301.63 1.905.24.735.5 1.465.703 2.211.1.369.282.444.634.438 1.26-.022 2.52-.008 3.781-.008h.555c-.56.413-1.025.76-1.494 1.102-.668.486-1.325.99-2.014 1.446-.328.218-.364.426-.242.778.415 1.202.796 2.415 1.19 3.624.039.121.071.245.135.463l-2.141-1.55c-.51-.369-1.026-.73-1.525-1.113-.195-.15-.321-.081-.483.037-1.07.781-2.143 1.557-3.217 2.333-.106.076-.22.139-.359.203-.027-.004-.033.001-.033.001Zm82.489-10.04.559-1.745.077-.006 1.461 4.464h4.797c-.175.142-.265.222-.362.292-1.081.787-2.161 1.578-3.25 2.355-.202.144-.256.266-.171.515.434 1.278.843 2.564 1.259 3.848.03.094.044.194.087.383-.446-.32-.817-.584-1.186-.852-.785-.57-1.576-1.133-2.35-1.717-.242-.183-.407-.173-.65.008-1.039.778-2.096 1.532-3.148 2.294-.113.082-.231.159-.417.285.413-1.27.796-2.464 1.189-3.656.298-.907.302-.903-.463-1.459-1.007-.733-2.012-1.469-3.017-2.205-.008-.005-.007-.022-.02-.068.142-.007.279-.019.416-.019 1.313-.002 2.626-.012 3.938.007.299.004.411-.113.491-.374.238-.777.498-1.547.76-2.35Zm-42.827 49.684c.183-.625.357-1.254.551-1.876.245-.788.493-1.576.765-2.355.084-.24.01-.355-.171-.485-1.075-.774-2.145-1.555-3.215-2.335-.1-.073-.193-.158-.372-.307h1.505c.932-.001 1.865-.027 2.795.011.408.016.541-.159.647-.5.38-1.226.783-2.445 1.179-3.666.035-.108.084-.212.152-.383l.877 2.668c.155.473.344.938.451 1.422.084.382.271.46.628.454 1.246-.021 2.493-.009 3.74-.009.153 0 .306 0 .491.083-.448.328-.895.658-1.344.985-.699.51-1.391 1.032-2.105 1.521-.265.181-.317.343-.215.645.457 1.352.889 2.713 1.369 4.19-.711-.513-1.338-.964-1.963-1.417-.637-.461-1.273-.924-1.938-1.408-1.267.916-2.528 1.827-3.811 2.752l-.016.01Zm35.297-62.65c.108-.342.196-.66.316-.963.096-.24.028-.377-.174-.521-1.067-.763-2.125-1.539-3.186-2.31-.102-.075-.198-.156-.367-.29.223-.011.36-.024.496-.024 1.3-.002 2.599-.01 3.899.003.269.002.383-.082.466-.346.43-1.374.887-2.74 1.372-4.222.077.202.124.31.16.421.405 1.247.822 2.49 1.203 3.743.102.333.267.41.587.406 1.26-.016 2.52-.007 3.78-.007h.426l.038.08c-.361.265-.72.533-1.082.796-.805.588-1.608 1.178-2.421 1.755-.204.144-.251.272-.168.519.408 1.204.792 2.416 1.182 3.626.055.17.102.344.181.612-.393-.278-.711-.499-1.023-.725-.828-.601-1.663-1.194-2.477-1.814-.273-.208-.461-.22-.745-.007-1.058.797-2.138 1.564-3.211 2.342-.073.052-.152.096-.311.195.368-1.132.71-2.185 1.059-3.27ZM88.56 75.347c-1.18-.851-2.367-1.694-3.535-2.561-.25-.186-.409-.17-.646.005-1.051.783-2.116 1.548-3.177 2.318-.102.074-.21.142-.391.264l1.002-3.096c.125-.387.233-.78.383-1.157.098-.25.02-.375-.18-.517-1.08-.77-2.148-1.55-3.22-2.33-.09-.066-.172-.144-.35-.296h.636c1.247 0 2.493-.01 3.74.01.31.004.435-.111.522-.388.416-1.324.848-2.644 1.275-3.965.015-.045.043-.087.1-.2.292.89.563 1.714.832 2.539.18.548.37 1.092.527 1.646.078.272.204.369.493.365 1.286-.015 2.572-.006 3.858-.006.14 0 .281 0 .46.08-.139.106-.274.214-.415.316-1.029.748-2.055 1.5-3.091 2.236-.206.145-.25.267-.167.515.46 1.379.895 2.766 1.34 4.184 0 .034.004.038.004.038ZM70.989 87.62c-.763-.57-.762-.567-1.517-.016-1.016.74-2.034 1.478-3.142 2.282.137-.444.241-.794.354-1.142.336-1.034.667-2.07 1.02-3.099.088-.257.043-.394-.18-.552-1.07-.758-2.125-1.535-3.185-2.308-.1-.073-.192-.157-.378-.31h1.038c1.102 0 2.205-.012 3.306.009.317.006.466-.09.56-.395.414-1.339.85-2.67 1.28-4.005.011-.033.044-.06.098-.132.363 1.111.713 2.186 1.067 3.26.136.41.17.978.457 1.177.306.213.855.084 1.298.086 1.1.006 2.199.002 3.335.081-.349.26-.695.523-1.046.779-.827.602-1.651 1.207-2.488 1.795-.186.132-.213.244-.142.455.435 1.304.855 2.614 1.279 3.923.027.084.044.171.092.363l-3.106-2.252Zm56.737-13.739.478 1.478c-.191-.125-.304-.193-.41-.27-1.062-.77-2.128-1.534-3.178-2.32-.239-.178-.394-.146-.614.017-1.011.75-2.034 1.486-3.053 2.225-.143.104-.292.2-.532.364l.957-2.936c.138-.424.262-.853.419-1.27.1-.265.04-.421-.192-.586-1.059-.751-2.106-1.521-3.156-2.285-.102-.075-.198-.157-.367-.292.22-.011.356-.025.493-.025 1.286-.001 2.572-.01 3.858.006.304.004.431-.097.521-.386.425-1.362.875-2.716 1.344-4.159.071.154.118.234.146.32.41 1.257.831 2.512 1.219 3.777.101.33.238.455.595.448 1.26-.022 2.52-.007 3.78-.006h.558c-.225.175-.358.285-.498.386-1.029.748-2.056 1.5-3.092 2.237-.204.145-.258.27-.173.519.31.904.593 1.818.897 2.758Z"/><path fill="#6F6F6F" d="m61.049 109.582.007.017s.002-.019-.006-.014c-.007.005 0 .001-.001-.003ZM88.563 75.34l.014.001s-.016-.012-.013-.003c.004.009 0 .005-.001.003Zm12.132 73.899c-.002.002-.007-.016-.007-.016s.009.022.011.017c.003-.005-.002-.003-.004-.001Z"/></g><defs><clipPath id="a" transform="translate(24 24)"><rect width="208" height="208" rx="16"/></clipPath><clipPath id="b"><rect width="208" height="208" fill="#fff" rx="16"/></clipPath><clipPath id="c"><path fill="#fff" d="M-536-256H744v720H-536z"/></clipPath><clipPath id="d"><path fill="#fff" d="M104-1069 1277.005 104.005 104 1277.011-1069.005 104.005z"/></clipPath></defs></svg>